<?xml version="1.0" encoding="UTF-8" standalone="no"?>
<!-- Created with Inkscape (http://www.inkscape.org/) -->

<svg
   xmlns:dc="http://purl.org/dc/elements/1.1/"
   xmlns:cc="http://creativecommons.org/ns#"
   xmlns:rdf="http://www.w3.org/1999/02/22-rdf-syntax-ns#"
   xmlns:svg="http://www.w3.org/2000/svg"
   xmlns="http://www.w3.org/2000/svg"
   xmlns:sodipodi="http://sodipodi.sourceforge.net/DTD/sodipodi-0.dtd"
   xmlns:inkscape="http://www.inkscape.org/namespaces/inkscape"
   width="200"
   height="50"
   viewBox="0 0 52.916665 13.229166"
   version="1.1"
   id="svg8"
   inkscape:version="0.92.4 (5da689c313, 2019-01-14)"
   sodipodi:docname="awesome_logo.svg">
  <defs
     id="defs2" />
  <sodipodi:namedview
     id="base"
     pagecolor="#ffffff"
     bordercolor="#666666"
     borderopacity="1.0"
     inkscape:pageopacity="0.0"
     inkscape:pageshadow="2"
     inkscape:zoom="5.6"
     inkscape:cx="67.510716"
     inkscape:cy="4.6305186"
     inkscape:document-units="mm"
     inkscape:current-layer="layer1"
     showgrid="false"
     inkscape:window-width="1920"
     inkscape:window-height="1016"
     inkscape:window-x="0"
     inkscape:window-y="34"
     inkscape:window-maximized="1"
     units="px" />
  <metadata
     id="metadata5">
    <rdf:RDF>
      <cc:Work
         rdf:about="">
        <dc:format>image/svg+xml</dc:format>
        <dc:type
           rdf:resource="http://purl.org/dc/dcmitype/StillImage" />
        <dc:title />
      </cc:Work>
    </rdf:RDF>
  </metadata>
  <g
     inkscape:label="Layer 1"
     inkscape:groupmode="layer"
     id="layer1"
     transform="translate(0,-283.77083)">
    <g
       aria-label=" Awesome "
       style="font-style:normal;font-variant:normal;font-weight:normal;font-stretch:normal;font-size:10.58333302px;line-height:1.25;font-family:'Liberation Sans';-inkscape-font-specification:'Liberation Sans';letter-spacing:0px;word-spacing:0px;fill:#000000;fill-opacity:1;stroke:none;stroke-width:0.26458332"
       id="text1"
       inkscape:label="#text817"
       transform="translate(-2.0713388,1.6036172)">
      <path
         d="m 4.3800245,284.63957 v -0.27516 h -1.30175 v 0.27516 z m 0,8.53017 v -0.27517 h -1.30175 v 0.27517 z m 0,-0.55033 v -7.70467 h -1.30175 v 7.70467 z"
         style="font-style:normal;font-variant:normal;font-weight:normal;font-stretch:normal;font-family:'The Black Box';-inkscape-font-specification:'The Black Box';stroke-width:0.26458332"
         id="path832"
         inkscape:connector-curvature="0" />
      <path
         d="M 5.5572549,290.06882 H 5.2609215 v 1.98967 H 4.4354216 v -5.588 c 0,-0.64558 0.4021666,-1.04775 0.9842499,-1.04775 0.5926667,0 0.9525,0.40217 0.9525,1.04775 v 5.588 H 5.5572549 Z m -0.2963334,-0.68791 h 0.2963334 v -3.048 c 0,-0.14817 -0.042333,-0.22225 -0.1375834,-0.22225 -0.127,0 -0.15875,0.10583 -0.15875,0.22225 z m 1.5028333,-4.74134 v -0.27516 H 4.2660882 v 0.27516 z m 0,8.53017 v -0.27517 H 4.2660882 v 0.27517 z m 0,-0.55033 v -7.70467 H 4.2660882 v 7.70467 z"
         style="font-style:normal;font-variant:normal;font-weight:normal;font-stretch:normal;font-family:'The Black Box';-inkscape-font-specification:'The Black Box';stroke-width:0.26458332"
         id="path834"
         inkscape:connector-curvature="0" />
      <path
         d="m 8.9609539,291.60341 -0.381,-3.58775 -0.3915833,3.58775 H 7.4157873 L 6.801954,286.50224 h 0.7408333 l 0.2963333,3.24908 0.4021667,-3.24908 h 0.6455833 l 0.41275,3.2385 0.2645833,-3.2385 h 0.7514171 l -0.5609171,5.10117 z m 1.5875001,-6.96384 v -0.27516 h -3.8735 v 0.27516 z m 0,8.53017 v -0.27517 h -3.8735 v 0.27517 z m 0,-0.55033 v -7.70467 h -3.8735 v 7.70467 z"
         style="font-style:normal;font-variant:normal;font-weight:normal;font-stretch:normal;font-family:'The Black Box';-inkscape-font-specification:'The Black Box';stroke-width:0.26458332"
         id="path836"
         inkscape:connector-curvature="0" />
      <path
         d="m 12.563752,290.62974 c -0.03175,0.58208 -0.359833,1.00542 -0.9525,1.00542 -0.635,0 -0.973666,-0.45509 -0.973666,-1.09009 v -3.03741 c 0,-0.60325 0.381,-1.04775 0.973666,-1.04775 0.635,0 0.9525,0.42333 0.9525,1.04775 v 1.8415 h -1.100666 v 1.3335 c 0,0.11641 0.03175,0.22225 0.148166,0.22225 0.09525,0 0.137584,-0.10584 0.137584,-0.22225 v -0.92075 h 0.814916 z m -0.814916,-3.24908 c 0,-0.14817 -0.04233,-0.22225 -0.137584,-0.22225 -0.09525,0 -0.148166,0.0741 -0.148166,0.22225 v 1.27 h 0.28575 z m 1.2065,-2.74109 v -0.27516 h -2.50825 v 0.27516 z m 0,8.53017 v -0.27517 h -2.50825 v 0.27517 z m 0,-0.55033 v -7.70467 h -2.50825 v 7.70467 z"
         style="font-style:normal;font-variant:normal;font-weight:normal;font-stretch:normal;font-family:'The Black Box';-inkscape-font-specification:'The Black Box';stroke-width:0.26458332"
         id="path838"
         inkscape:connector-curvature="0" />
      <path
         d="m 14.950459,290.54507 c 0,0.60325 -0.275166,1.09009 -0.9525,1.09009 -0.582083,0 -0.973666,-0.40217 -0.973666,-0.99484 v -1.04775 h 0.814916 v 1.09009 c 0,0.0953 0.04233,0.22225 0.15875,0.22225 0.09525,0 0.137584,-0.0952 0.137584,-0.22225 v -0.91017 c 0,-0.16933 -0.137584,-0.26458 -0.34925,-0.39158 -0.41275,-0.26459 -0.762,-0.56092 -0.762,-1.05834 v -0.84666 c 0,-0.56092 0.34925,-1.016 0.973666,-1.016 0.635,0 0.9525,0.46566 0.9525,1.016 v 0.93133 h -0.814916 v -1.03717 c 0,-0.13758 -0.05292,-0.21166 -0.148167,-0.21166 -0.09525,0 -0.148167,0.0741 -0.148167,0.21166 v 0.86784 c 0,0.20108 0.116417,0.27516 0.402167,0.43391 0.296333,0.17992 0.709083,0.47625 0.709083,0.97367 z m 0.370417,-5.9055 v -0.27516 h -2.465917 v 0.27516 z m 0,8.53017 v -0.27517 h -2.465917 v 0.27517 z m 0,-0.55033 v -7.70467 h -2.465917 v 7.70467 z"
         style="font-style:normal;font-variant:normal;font-weight:normal;font-stretch:normal;font-family:'The Black Box';-inkscape-font-specification:'The Black Box';stroke-width:0.26458332"
         id="path840"
         inkscape:connector-curvature="0" />
      <path
         d="m 16.502571,287.38066 c 0,-0.14817 -0.05292,-0.22225 -0.148166,-0.22225 -0.116417,0 -0.137584,0.0953 -0.137584,0.22225 v 3.302 c 0,0.127 0.04233,0.22225 0.137584,0.22225 0.09525,0 0.148166,-0.0952 0.148166,-0.22225 z m 0.814917,3.16441 c 0,0.64559 -0.359833,1.09009 -0.9525,1.09009 -0.635,0 -0.973667,-0.4445 -0.973667,-1.09009 v -3.03741 c 0,-0.635 0.391584,-1.04775 0.973667,-1.04775 0.592667,0 0.9525,0.41275 0.9525,1.04775 z m 0.359833,-5.9055 v -0.27516 h -2.465916 v 0.27516 z m 0,8.53017 v -0.27517 h -2.465916 v 0.27517 z m 0,-0.55033 v -7.70467 h -2.44475 v 7.70467 z"
         style="font-style:normal;font-variant:normal;font-weight:normal;font-stretch:normal;font-family:'The Black Box';-inkscape-font-specification:'The Black Box';stroke-width:0.26458332"
         id="path842"
         inkscape:connector-curvature="0" />
      <path
         d="m 20.012103,291.60341 v -4.21217 c 0,-0.14817 -0.05292,-0.22225 -0.148166,-0.22225 -0.09525,0 -0.148167,0.0741 -0.148167,0.22225 v 4.21217 h -0.804333 v -4.21217 c 0,-0.14817 -0.05292,-0.22225 -0.15875,-0.22225 -0.09525,0 -0.137584,0.0741 -0.137584,0.22225 v 4.21217 h -0.814916 v -5.09059 h 0.79375 l 0.02117,0.15875 c 0.07408,-0.0952 0.22225,-0.1905 0.423334,-0.1905 0.28575,0 0.433916,0.11642 0.508,0.23284 0.127,-0.13759 0.3175,-0.23284 0.5715,-0.23284 0.508,0 0.6985,0.35984 0.6985,0.89959 v 4.22275 z m 1.2065,-6.96384 v -0.27516 h -3.6195 v 0.27516 z m 0,8.53017 v -0.27517 h -3.6195 v 0.27517 z m 0,-0.55033 v -7.70467 h -3.6195 v 7.70467 z"
         style="font-style:normal;font-variant:normal;font-weight:normal;font-stretch:normal;font-family:'The Black Box';-inkscape-font-specification:'The Black Box';stroke-width:0.26458332"
         id="path844"
         inkscape:connector-curvature="0" />
      <path
         d="m 23.250438,290.62974 c -0.03175,0.58208 -0.359833,1.00542 -0.9525,1.00542 -0.635,0 -0.973667,-0.45509 -0.973667,-1.09009 v -3.03741 c 0,-0.60325 0.381,-1.04775 0.973667,-1.04775 0.635,0 0.9525,0.42333 0.9525,1.04775 v 1.8415 h -1.100667 v 1.3335 c 0,0.11641 0.03175,0.22225 0.148167,0.22225 0.09525,0 0.137583,-0.10584 0.137583,-0.22225 v -0.92075 h 0.814917 z m -0.814917,-3.24908 c 0,-0.14817 -0.04233,-0.22225 -0.137583,-0.22225 -0.09525,0 -0.148167,0.0741 -0.148167,0.22225 v 1.27 h 0.28575 z m 1.2065,-2.74109 v -0.27516 h -2.50825 v 0.27516 z m 0,8.53017 v -0.27517 h -2.50825 v 0.27517 z m 0,-0.55033 v -7.70467 h -2.50825 v 7.70467 z"
         style="font-style:normal;font-variant:normal;font-weight:normal;font-stretch:normal;font-family:'The Black Box';-inkscape-font-specification:'The Black Box';stroke-width:0.26458332"
         id="path846"
         inkscape:connector-curvature="0" />
      <path
         d="m 24.864562,284.63957 v -0.27516 h -1.30175 v 0.27516 z m 0,8.53017 v -0.27517 h -1.30175 v 0.27517 z m 0,-0.55033 v -7.70467 h -1.30175 v 7.70467 z"
         style="font-style:normal;font-variant:normal;font-weight:normal;font-stretch:normal;font-family:'The Black Box';-inkscape-font-specification:'The Black Box';stroke-width:0.26458332"
         id="path848"
         inkscape:connector-curvature="0" />
    </g>
    <g
       aria-label="very cool"
       style="font-style:normal;font-variant:normal;font-weight:normal;font-stretch:normal;font-size:3.63299847px;line-height:1.25;font-family:Tarpino;-inkscape-font-specification:Tarpino;letter-spacing:0px;word-spacing:0px;fill:#000000;fill-opacity:1;stroke:none;stroke-width:0.34059361"
       id="text2"
       inkscape:label="#text826">
      <path
         d="m 28.377741,290.70152 q -0.18338,0.49132 -0.38752,0.91344 -0.518999,1.06914 -0.906519,1.06914 -0.3633,0 -0.7958,-0.82002 -0.26296,-0.48786 -0.49824,-1.16602 l 0.346,-0.12456 q 0.18338,0.48786 0.40482,0.9342 0.32178,0.65394 0.54322,0.79926 0.21798,-0.16262 0.53976,-0.80618 0.214519,-0.4325 0.411739,-0.93074 z"
         style="font-style:normal;font-variant:normal;font-weight:normal;font-stretch:normal;font-size:3.63299847px;font-family:Tarpino;-inkscape-font-specification:Tarpino;stroke-width:0.34059361"
         id="path885" />
      <path
         d="m 31.537504,291.56998 q 0,0.12802 -0.15224,0.18338 -0.03806,0.0104 -0.25258,0.0381 -0.39444,0.0519 -0.74736,0.0519 -0.397899,0 -0.743899,-0.0588 l 0.06574,-0.36676 q 0.3114,0.0519 0.674699,0.0519 0.35292,0 0.79234,-0.0588 v -0.13494 q 0,-0.17646 -0.35638,-0.2768 -0.29756,-0.083 -0.67816,-0.083 -0.380599,0 -0.678159,0.083 -0.35638,0.10034 -0.35638,0.2768 v 0.66432 q 0,0.16608 0.44288,0.2768 0.33908,0.083 0.591659,0.083 h 0.7439 v 0.37022 h -0.7439 q -1.397839,0 -1.397839,-0.73006 v -0.66432 q 0,-0.73006 1.397839,-0.73006 1.39784,0 1.39784,0.73006 z"
         style="font-style:normal;font-variant:normal;font-weight:normal;font-stretch:normal;font-size:3.63299847px;font-family:Tarpino;-inkscape-font-specification:Tarpino;stroke-width:0.34059361"
         id="path887" />
      <path
         d="m 33.993995,290.59426 -0.11072,0.35638 q -0.25258,-0.0519 -0.47056,-0.0519 -0.50516,0 -0.77158,0.14532 -0.15224,0.083 -0.15224,0.2249 v 1.4013 h -0.373679 v -1.4013 q 0,-0.47402 0.636639,-0.65394 l -0.01038,0.003 q 0.29064,-0.0761 0.67124,-0.0761 0.35292,0 0.58128,0.0519 z"
         style="font-style:normal;font-variant:normal;font-weight:normal;font-stretch:normal;font-size:3.63299847px;font-family:Tarpino;-inkscape-font-specification:Tarpino;stroke-width:0.34059361"
         id="path889" />
      <path
         d="m 36.766023,290.55274 v 2.25246 q 0,0.43596 -0.51554,0.61934 -0.346,0.1211 -0.8823,0.1211 -0.342539,0 -0.636639,-0.0519 l 0.07612,-0.34946 q 0.26296,0.045 0.560519,0.045 0.37022,0 0.68162,-0.0969 0.35292,-0.11418 0.35292,-0.28718 v -0.3287 q -0.44288,0.1557 -0.85116,0.1557 -0.460179,0 -0.775039,-0.13148 -0.43596,-0.17992 -0.43596,-0.57436 v -1.37362 h 0.35984 v 1.37362 q 0,0.173 0.29756,0.26988 0.2422,0.0796 0.553599,0.0796 0.45672,0 0.70584,-0.12802 0.14532,-0.0761 0.14532,-0.22144 v -1.37362 z"
         style="font-style:normal;font-variant:normal;font-weight:normal;font-stretch:normal;font-size:3.63299847px;font-family:Tarpino;-inkscape-font-specification:Tarpino;stroke-width:0.34059361"
         id="path891" />
      <path
         d="m 41.709684,290.87798 -0.3114,0.21798 q -0.30794,-0.19376 -0.9342,-0.19376 -0.37368,0 -0.67816,0.0865 -0.359839,0.10726 -0.359839,0.28026 v 0.68508 q 0,0.17646 0.349459,0.28026 0.29756,0.09 0.68854,0.09 0.62626,0 0.9342,-0.19722 l 0.30794,0.22144 q -0.32178,0.33562 -1.24214,0.33562 -1.401299,0 -1.401299,-0.73006 v -0.68508 q 0,-0.73006 1.401299,-0.73006 0.92382,0 1.2456,0.33908 z"
         style="font-style:normal;font-variant:normal;font-weight:normal;font-stretch:normal;font-size:3.63299847px;font-family:Tarpino;-inkscape-font-specification:Tarpino;stroke-width:0.34059361"
         id="path893" />
      <path
         d="m 45.133163,291.9402 q 0,0.73006 -1.39784,0.73006 -1.397839,0 -1.397839,-0.73006 v -0.66778 q 0,-0.73006 1.397839,-0.73006 1.39784,0 1.39784,0.73006 z m -0.3633,0 v -0.66778 q 0,-0.173 -0.35638,-0.27334 -0.29756,-0.083 -0.67816,-0.083 -0.3806,0 -0.67816,0.083 -0.356379,0.10034 -0.356379,0.27334 v 0.66778 q 0,0.173 0.356379,0.27334 0.29756,0.083 0.67816,0.083 0.3806,0 0.67816,-0.083 0.35638,-0.10034 0.35638,-0.27334 z"
         style="font-style:normal;font-variant:normal;font-weight:normal;font-stretch:normal;font-size:3.63299847px;font-family:Tarpino;-inkscape-font-specification:Tarpino;stroke-width:0.34059361"
         id="path895" />
      <path
         d="m 48.47198,291.9402 q 0,0.73006 -1.397839,0.73006 -1.39784,0 -1.39784,-0.73006 v -0.66778 q 0,-0.73006 1.39784,-0.73006 1.397839,0 1.397839,0.73006 z m -0.3633,0 v -0.66778 q 0,-0.173 -0.35638,-0.27334 -0.297559,-0.083 -0.678159,-0.083 -0.3806,0 -0.67816,0.083 -0.35638,0.10034 -0.35638,0.27334 v 0.66778 q 0,0.173 0.35638,0.27334 0.29756,0.083 0.67816,0.083 0.3806,0 0.678159,-0.083 0.35638,-0.10034 0.35638,-0.27334 z"
         style="font-style:normal;font-variant:normal;font-weight:normal;font-stretch:normal;font-size:3.63299847px;font-family:Tarpino;-inkscape-font-specification:Tarpino;stroke-width:0.34059361"
         id="path897" />
      <path
         d="m 50.136157,292.67026 q -0.22836,-0.007 -0.38752,-0.0346 -0.29064,-0.0554 -0.491319,-0.21798 -0.23528,-0.1903 -0.23528,-0.46018 v -2.22824 h 0.384059 v 2.22824 q 0,0.11418 0.15916,0.21452 0.12456,0.0761 0.26296,0.10726 0.10726,0.0242 0.30794,0.0277 z"
         style="font-style:normal;font-variant:normal;font-weight:normal;font-stretch:normal;font-size:3.63299847px;font-family:Tarpino;-inkscape-font-specification:Tarpino;stroke-width:0.34059361"
         id="path899" />
    </g>
  </g>
</svg>
